<?xml version="1.0" encoding="UTF-8" standalone="no"?>
<!-- Created with Inkscape (http://www.inkscape.org/) -->

<svg
   xmlns:dc="http://purl.org/dc/elements/1.1/"
   xmlns:cc="http://creativecommons.org/ns#"
   xmlns:rdf="http://www.w3.org/1999/02/22-rdf-syntax-ns#"
   xmlns:svg="http://www.w3.org/2000/svg"
   xmlns="http://www.w3.org/2000/svg"
   xmlns:sodipodi="http://sodipodi.sourceforge.net/DTD/sodipodi-0.dtd"
   xmlns:inkscape="http://www.inkscape.org/namespaces/inkscape"
   width="85.655945mm"
   height="62.440308mm"
   viewBox="0 0 85.655944 62.440308"
   version="1.1"
   id="svg8"
   inkscape:version="0.92.1 r15371"
   sodipodi:docname="champion.svg">
  <defs
     id="defs2" />
  <sodipodi:namedview
     id="base"
     pagecolor="#ffffff"
     bordercolor="#666666"
     borderopacity="1.0"
     inkscape:pageopacity="0.0"
     inkscape:pageshadow="2"
     inkscape:zoom="0.24748738"
     inkscape:cx="425.65441"
     inkscape:cy="-166.60409"
     inkscape:document-units="mm"
     inkscape:current-layer="g3684"
     showgrid="false"
     fit-margin-top="5"
     fit-margin-left="5"
     fit-margin-right="5"
     fit-margin-bottom="5"
     inkscape:window-width="922"
     inkscape:window-height="742"
     inkscape:window-x="70"
     inkscape:window-y="217"
     inkscape:window-maximized="0" />
  <metadata
     id="metadata5">
    <rdf:RDF>
      <cc:Work
         rdf:about="">
        <dc:format>image/svg+xml</dc:format>
        <dc:type
           rdf:resource="http://purl.org/dc/dcmitype/StillImage" />
        <dc:title></dc:title>
      </cc:Work>
    </rdf:RDF>
  </metadata>
  <g
     inkscape:label="Capa 1"
     inkscape:groupmode="layer"
     id="layer1"
     style="display:inline"
     transform="translate(23.094739,8.7512854)">
    <g
       id="g3684"
       transform="matrix(0.03527778,0,0,-0.03527778,-6.2748144,60.554795)"
       style="display:inline;fill:#000000;stroke:none">
      <g
         id="g3742"
         transform="matrix(0.34225629,0,0,0.30840183,-334.0262,114.30327)"
         style="fill:#000000;stroke:none">
        <path
           id="path3694"
           d="m 1165,5433 c -20,-290 42,-757 133,-1008 97,-267 199,-433 359,-586 210,-200 434,-289 770,-306 100,-4 130,-9 126,-19 -2,-7 5,-17 16,-23 21,-11 185,-71 195,-71 3,0 11,18 17,40 7,22 17,39 23,37 17,-6 132,-155 177,-231 95,-158 52,-287 -139,-414 -35,-23 -65,-42 -67,-42 -2,0 -39,-16 -82,-36 -95,-45 -314,-116 -405,-134 l -68,-12 v -43 c 0,-70 -5,-75 -71,-75 h -59 v -85 -85 h 50 50 v -569 -570 l -47,-3 -48,-3 -5,-95 -5,-95 -32,-3 -33,-3 V 859 720 h 1110 1110 v 140 140 h -35 -35 v 95 95 h -50 -50 v 575 575 h 50 50 v 80 80 h -60 -59 l -6,34 c -4,19 -4,43 -1,53 9,29 -5,39 -74,52 -87,17 -310,91 -413,137 -158,71 -279,172 -313,260 -23,60 -15,137 20,205 35,66 185,261 196,254 5,-3 14,-21 20,-40 6,-19 15,-35 18,-35 4,0 52,16 106,35 55,19 101,35 104,35 2,0 2,8 -1,19 -4,17 6,18 128,24 362,16 604,123 825,362 112,121 172,219 270,440 109,246 188,770 165,1098 l -7,107 h -328 c -181,0 -331,-3 -334,-8 -2,-4 2,-32 10,-61 38,-148 28,-211 -46,-283 -49,-47 -184,-120 -247,-133 l -33,-7 v 66 66 h 75 75 v 90 90 H 3130 2000 v -90 -90 h 75 75 v -66 -66 l -32,7 c -18,4 -70,25 -116,47 -132,62 -202,143 -202,235 0,21 25,150 36,186 5,16 -15,17 -329,17 h -335 z m 414,-188 c 28,-138 136,-260 306,-344 55,-27 108,-52 118,-55 13,-4 17,-16 17,-51 v -45 h 79 79 l 12,-72 c 15,-89 61,-258 97,-353 29,-80 126,-286 152,-324 116,-173 141,-212 141,-219 0,-26 -219,-20 -360,8 -71,15 -169,53 -245,95 -258,144 -445,458 -529,890 -32,164 -65,513 -50,528 4,4 44,7 89,7 h 81 z m 3283,-45 c -10,-342 -94,-700 -218,-928 -173,-321 -413,-476 -787,-507 -96,-8 -180,2 -173,20 2,7 38,64 78,127 156,239 266,514 308,766 l 12,72 h 79 79 v 46 c 0,42 2,46 33,56 91,32 207,101 269,160 76,72 114,134 134,215 8,32 17,64 19,71 4,9 27,12 87,10 l 83,-3 z m -974,-3457 2,-553 h -197 c -109,0 -451,3 -760,7 l -563,6 v 549 548 l 758,-2 757,-3 z"
           inkscape:connector-curvature="0" />
        <path
           id="path3696"
           d="m 3137,2113 c -4,-3 -7,-17 -7,-31 0,-40 -66,-97 -128,-111 -29,-6 -62,-11 -73,-11 -18,0 -20,-6 -17,-67 l 3,-68 93,-3 92,-3 v -229 -230 h 95 95 v 380 380 h -73 c -41,0 -77,-3 -80,-7 z"
           inkscape:connector-curvature="0" />
        <path
           id="path3698"
           d="m 550,4258 c -87,-82 -140,-198 -140,-303 0,-95 47,-211 119,-294 l 39,-44 44,42 c 25,22 60,70 78,107 58,113 54,279 -9,410 -16,32 -42,74 -57,92 l -29,34 z"
           inkscape:connector-curvature="0" />
        <path
           id="path3700"
           d="m 5631,4261 c -72,-91 -106,-206 -99,-342 3,-72 9,-97 35,-150 18,-35 53,-84 78,-109 l 46,-45 40,45 c 54,62 98,154 112,233 20,120 -27,262 -118,352 -61,60 -60,60 -94,16 z"
           inkscape:connector-curvature="0" />
        <path
           id="path3702"
           d="m 884,3740 c -109,-83 -188,-226 -201,-361 -6,-64 23,-180 55,-219 l 19,-23 57,32 c 146,84 236,241 223,387 -6,59 -46,184 -68,211 -17,20 -30,16 -85,-27 z"
           inkscape:connector-curvature="0" />
        <path
           id="path3704"
           d="m 5291,3767 c -20,-25 -61,-146 -67,-201 -18,-150 92,-340 234,-406 61,-28 58,-29 94,60 67,168 -12,398 -179,521 -57,43 -65,45 -82,26 z"
           inkscape:connector-curvature="0" />
        <path
           id="path3706"
           d="m 48,3738 c -3,-7 -11,-45 -18,-84 -38,-215 100,-421 318,-475 63,-16 68,-12 78,69 17,137 -26,252 -133,359 -85,85 -233,164 -245,131 z"
           inkscape:connector-curvature="0" />
        <path
           id="path3708"
           d="m 6153,3730 c -172,-61 -311,-233 -320,-395 -2,-38 0,-90 4,-115 l 9,-45 44,2 c 27,1 73,16 117,38 184,91 272,298 210,497 l -12,37 z"
           inkscape:connector-curvature="0" />
        <path
           id="path3710"
           d="m 516,3498 c -28,-135 -3,-393 56,-578 137,-432 461,-828 938,-1147 87,-58 252,-157 327,-196 l 51,-26 17,25 c 9,14 17,37 18,50 2,22 -13,33 -128,98 -316,177 -582,387 -774,611 -117,137 -178,227 -253,372 -118,232 -161,412 -156,646 3,161 8,149 -59,162 -28,6 -33,3 -37,-17 z"
           inkscape:connector-curvature="0" />
        <path
           id="path3712"
           d="m 5685,3509 -40,-9 3,-143 c 6,-234 -35,-406 -154,-642 -193,-386 -545,-723 -1051,-1005 -62,-35 -113,-68 -113,-73 0,-13 31,-76 40,-82 20,-12 368,201 530,324 343,260 594,564 728,883 71,167 101,286 122,475 13,115 2,285 -18,282 -4,-1 -25,-5 -47,-10 z"
           inkscape:connector-curvature="0" />
        <path
           id="path3714"
           d="M 963,3157 C 859,3049 815,2938 822,2796 c 3,-74 9,-101 33,-148 15,-32 36,-65 46,-74 15,-14 20,-14 46,-1 54,29 135,119 166,187 42,90 49,218 17,302 -22,61 -77,149 -96,155 -6,2 -38,-25 -71,-60 z"
           inkscape:connector-curvature="0" />
        <path
           id="path3716"
           d="m 5196,3185 c -15,-19 -39,-61 -54,-93 -24,-50 -27,-69 -27,-162 0,-93 3,-112 27,-162 15,-32 41,-75 57,-96 36,-44 122,-112 142,-112 17,0 62,73 83,135 32,94 16,237 -40,347 -23,45 -138,178 -154,178 -4,0 -20,-16 -34,-35 z"
           inkscape:connector-curvature="0" />
        <path
           id="path3718"
           d="m 4,3100 c 18,-197 149,-342 341,-380 33,-6 83,-10 110,-8 l 50,3 -2,68 c -1,52 -8,82 -29,125 -35,72 -131,168 -206,205 -61,30 -169,57 -232,57 H -3 Z"
           inkscape:connector-curvature="0" />
        <path
           id="path3720"
           d="m 6140,3160 c -74,-13 -156,-49 -220,-95 -105,-78 -161,-175 -164,-284 l -1,-66 58,-3 c 125,-6 238,37 326,125 68,69 107,157 117,263 l 7,70 -39,-1 c -21,-1 -59,-5 -84,-9 z"
           inkscape:connector-curvature="0" />
        <path
           id="path3722"
           d="m 1267,2801 c -112,-120 -158,-303 -117,-462 14,-52 86,-159 107,-159 10,0 37,18 61,40 121,114 169,282 123,429 -19,61 -72,151 -108,184 -19,17 -21,16 -66,-32 z"
           inkscape:connector-curvature="0" />
        <path
           id="path3724"
           d="m 4927,2833 c -175,-194 -167,-439 22,-620 40,-38 47,-42 64,-30 38,25 95,134 107,206 23,139 -27,302 -127,411 -47,51 -48,52 -66,33 z"
           inkscape:connector-curvature="0" />
        <path
           id="path3726"
           d="m 217,2630 c -20,-4 -40,-10 -44,-14 -7,-7 20,-90 48,-147 32,-64 107,-137 172,-168 115,-54 199,-61 325,-25 61,17 60,15 13,119 -79,171 -306,276 -514,235 z"
           inkscape:connector-curvature="0" />
        <path
           id="path3728"
           d="m 5854,2630 c -155,-33 -274,-120 -328,-242 -44,-98 -45,-95 21,-115 217,-65 436,42 517,253 31,82 31,90 9,99 -30,11 -175,15 -219,5 z"
           inkscape:connector-curvature="0" />
        <path
           id="path3730"
           d="m 1536,2418 c -95,-219 -45,-457 121,-575 56,-40 61,-37 109,58 79,158 62,323 -48,460 -31,39 -126,109 -147,109 -7,0 -22,-24 -35,-52 z"
           inkscape:connector-curvature="0" />
        <path
           id="path3732"
           d="m 4624,2433 c -137,-103 -196,-238 -173,-398 9,-63 53,-171 85,-206 15,-16 19,-17 44,-4 40,21 118,101 139,144 52,103 69,248 41,351 -19,69 -58,150 -73,150 -7,0 -36,-17 -63,-37 z"
           inkscape:connector-curvature="0" />
        <path
           id="path3734"
           d="m 570,2165 c -30,-9 -79,-27 -107,-41 l -53,-25 15,-29 c 27,-52 122,-145 177,-173 140,-70 336,-48 458,51 l 24,20 -37,45 c -56,69 -118,115 -184,139 -77,27 -218,34 -293,13 z"
           inkscape:connector-curvature="0" />
        <path
           id="path3736"
           d="m 5480,2174 c -14,-3 -54,-14 -89,-26 -55,-18 -76,-32 -138,-94 -40,-40 -73,-78 -73,-84 0,-15 97,-75 150,-93 110,-37 244,-29 330,20 58,33 146,118 170,164 l 19,36 -30,17 c -78,46 -251,77 -339,60 z"
           inkscape:connector-curvature="0" />
        <path
           id="path3738"
           d="m 1114,1820 c -72,-10 -170,-48 -224,-88 l -39,-28 31,-38 c 149,-181 389,-210 583,-72 36,26 65,51 65,55 0,21 -85,101 -138,129 -51,27 -165,55 -207,51 -5,-1 -37,-5 -71,-9 z"
           inkscape:connector-curvature="0" />
        <path
           id="path3740"
           d="m 4994,1820 c -76,-11 -157,-52 -214,-109 -27,-27 -50,-54 -50,-59 0,-17 112,-95 164,-115 166,-63 320,-32 446,90 33,33 60,64 60,71 0,33 -158,109 -246,117 -33,3 -70,7 -84,9 -14,1 -48,0 -76,-4 z"
           inkscape:connector-curvature="0" />
      </g>
    </g>
  </g>
</svg>
